<svg xmlns="http://www.w3.org/2000/svg" width="584" height="620" fill="none" viewBox="0 0 584 620">
  <path fill="#F1F6FF" d="m241.032 610.998-9.319-409.631H58.033l2.541 409.631h180.458Z"/>
  <path fill="#FEFCED" d="M302.879 608.881V337.77l209.687 6.12v264.991H302.879Z"/>
  <path fill="#7398F7" d="m58.033 201.367 2.542 409.631h98.701l-4.66-409.631H58.033Z"/>
  <path fill="#1F1D42" d="M182.997 159.855h-72.014v41.514h72.014v-41.514Z"/>
  <path fill="#1F1717" d="M110.983 159.855v41.514h48.715c-23.383-5.084-30.641-29.794-31.347-41.514h-17.368Z"/>
  <path fill="#0E173D" d="m152.498 89.111-8.472-.847c-2.118-.847-2.542-10.59 5.507-8.472 6.438 1.694 4.659 6.919 2.965 9.32Z"/>
  <path fill="#0E173D" d="m152.498 89.112-8.472-.847v12.284l8.472.848V89.112Z"/>
  <path fill="#1F1D42" d="m144.025 100.548 8.472.848 31.348 22.451H110.56l33.465-23.299Z"/>
  <path fill="#1B2A63" d="M323.636 403.007h-6.777v48.291h-2.966v5.083h12.709v-6.777h-2.966v-46.597Z"/>
  <path fill="#A3BDFF" d="M512.566 612.269H302.879V473.325l209.687 3.06v135.884Z"/>
  <path fill="#063183" d="m448.177 242.458-226.631-7.201 81.333 102.513 217.735 6.354-72.437-101.666Z"/>
  <path fill="#7087FB" d="m302.879 337.77 217.735 6.354-204.603-105.866-94.465-3.001 81.333 102.513Z"/>
  <path fill="#CFDEF3" d="m221.546 235.257 81.333 102.513v268.145l-149.958 7.202V337.77l40.243-52.951h-8.896l37.278-49.562Z"/>
  <path fill="#0C183F" d="M250.776 297.527h-44.479v53.375h44.479v-53.375Z"/>
  <path fill="#1F326B" d="M211.38 303.033h15.25v18.639h-15.25zm21.18 0h15.25v18.639h-15.25zm0 25.418h15.25v18.639h-15.25z"/>
  <path stroke="#000" d="M110.562 123.846h78.367v2.118h-84.298v-2.118h5.931Z"/>
  <path stroke="#000" stroke-width="4" d="M150.804 378.012H512.99"/>
  <path stroke="#000" stroke-width="5" d="M151.652 486.457h359.645"/>
  <path stroke="#5267FA" stroke-width="6" d="M151.652 486.457h149.534"/>
  <path fill="#1F326B" d="M211.38 328.451h15.25v18.639h-15.25z"/>
  <path fill="#0E173D" d="M113.525 289.901h-22.45v61h24.145l-1.695-61Z"/>
  <path fill="#0C193F" d="M113.525 395.381h-22.45v61h24.145l-1.695-61Z"/>
  <path fill="#1F1D42" d="M114.797 267.027H91.922V220.43c5.423-15.25 14.403-6.354 18.216 0l4.659 46.597Z"/>
  <path fill="#1F326B" d="M352.019 247.118h-24.146l-21.18-6.355V199.25l21.18-.573 25.841-.698-.117 3.389-1.578 45.75Z"/>
  <path fill="#FEFDE8" d="M352.019 247.118h-24.145v-48.441l25.84-.698-.117 3.389-1.578 45.75Z"/>
  <path fill="#112F7F" d="m306.693 199.25 21.18-.573 25.841-.698-.117 3.389h-46.904v-2.118Z"/>
  <path fill="#0C1942" d="M180.881 125.966h1.694v33.889h-1.694zm60.151 40.666v1.694H51.255v-1.694zm0 33.041v1.694H51.255v-1.694z"/>
  <path stroke="#18265D" stroke-width="4" d="M58 231.867h174.501"/>
  <path fill="#081334" d="M241.032 186.118v1.694H51.255v-1.694z"/>
  <path fill="#132355" d="M110.56 125.966h1.694v33.889h-1.694zm17.792 5.929h1.694v27.958h-1.694zm3.389 0h1.694v27.958h-1.694zm5.083 0h1.694v27.958h-1.694z"/>
  <path stroke="#A3BDFF" stroke-width="4" d="m221.546 235.257 5.713 8.896m75.62 93.617-6.159-7.625m-69.461-85.992 226.049 5.507m-226.049-5.507 10.265 12.708m0 0 224.537 5.083m-224.537-5.083 11.292 13.979m0 0 221.997 3.389m-221.997-3.389 9.16 11.34m0 0 221.59 4.334m-221.59-4.334 11.028 13.653m0 0 219.416 3.106m-219.416-3.106 9.239 11.437m0 0 219.496 4.749m-219.496-4.749 12.318 15.25m0 0h214.66m-214.66 0 6.159 7.625m0 0 216.198 3.177"/>
  <path fill="#121B3A" d="M83.451 168.327h1.694v31.347h-1.694zm-32.195 0h1.694v31.347h-1.694zm188.082 0h1.694v31.347h-1.694z"/>
  <path fill="#0C183F" d="M377.436 511.026H363.88v68.625h13.556v-68.625Z"/>
  <path fill="#17275F" d="M363.88 579.651h13.556v-34.312H363.88v34.312Zm125.811-31.347H467.24v32.195h22.451v-32.195Z"/>
  <path stroke="#000" stroke-width="3" d="M148.687 79.791 146.992 1"/>
  <path fill="#121B3A" d="M210.534 168.327h1.694v31.347h-1.694zm-59.307 0h1.694v31.347h-1.694zm-73.708 0h1.694v31.347h-1.694zm127.083 0h1.694v31.347h-1.694z"/>
  <path fill="#121B3A" d="M204.602 168.327h1.694v31.347h-1.694zm-59.304 0h1.694v31.347h-1.694zm13.555-36.432h1.694v27.958h-1.694zm3.388 0h1.694v27.958h-1.694zm-9.32 0h1.694v27.958h-1.694z"/>
  <path fill="#0F1C49" d="M467.24 580.499h22.451v-16.097H467.24v16.097Z"/>
  <path fill="#FAF2E2" d="M503.67 556.353h-8.472v17.792l8.472-.424v-17.368Z"/>
  <path fill="#0D0808" d="M200.365 511.449v37.278h4.236v55.916h7.202v-58.458h-4.66v-28.382h41.514v28.382h-6.778v58.458h4.236v-55.916h8.049v-37.278h-53.799Z"/>
  <path fill="#17275F" d="M241.881 546.186v58.458h-30.076v-58.458h-4.66v-28.382h41.514v28.382h-6.778Z"/>
  <path fill="#091D39" d="M584 611.421H0V620h584v-8.579Z"/>
  <path stroke="#000" stroke-width="4" d="M571.873 611.422v-34.736m-61.847 0v34.736m-63.541-34.736v34.736m-60.576-34.736v34.736m-62.695-34.736v34.736m-63.965-34.736v34.736m-57.611-34.736v34.736m-64.812-34.736v34.736m-62.694-34.736v34.736m-59.729-34.736v34.736"/>
  <path stroke="#000" stroke-width="3" d="M571.873 582c-13.273 11.579-44.225 27.789-61.847 0-14.403 8.755-47.275 20.78-63.541-.231-12.709 8.472-42.616 21.519-60.577 5.93-12.567 5.79-42.699 13.895-62.694 0-17.509 3.672-54.815 8.812-63.965 0-11.861 3.672-39.989 8.812-57.611 0-17.085 3.672-53.968 8.812-64.812 0-18.074 6.213-47.02 14.403-62.694 0-17.051 3.672-50.763 9.612-60.632.801"/>
  <circle cx="571.965" cy="574.965" r="2.965" fill="#06162A"/>
  <circle cx="510.026" cy="574.568" r="2.965" fill="#06162A"/>
  <circle cx="446.484" cy="575.416" r="2.965" fill="#06162A"/>
  <circle cx="385.965" cy="574.965" r="2.965" fill="#06162A"/>
  <circle cx="322.965" cy="574.965" r="2.965" fill="#06162A"/>
  <circle cx="259.249" cy="575.416" r="2.965" fill="#06162A"/>
  <circle cx="201.638" cy="574.568" r="2.965" fill="#06162A"/>
  <circle cx="136.965" cy="574.568" r="2.965" fill="#06162A"/>
  <circle cx="73.965" cy="576.262" r="2.965" fill="#06162A"/>
  <circle cx="13.965" cy="577.965" r="2.965" fill="#06162A"/>
  <path stroke="#000" stroke-width="4" d="m56.764 45.479 12.708 11.014 12.709-11.014M8.472 38.702 21.18 49.715l12.708-11.013m29.653-22.027L76.25 27.689l12.708-11.014m44.056 4.235 12.708 11.014 12.709-11.014"/>
  <path fill="#0F1F4C" d="M255.86 390.298h-45.75l1.695 67.778h44.055v-67.778Z"/>
  <path fill="#142553" d="M244.847 401.736h-23.722v44.902h23.722v-44.902Z"/>
</svg>
