<svg xmlns="http://www.w3.org/2000/svg" width="157" height="32" fill="none" viewBox="0 0 157 32">
  <path fill="#C4C4C4" d="M45.002 17.34c.804-.725 1.348-1.802 1.652-3.252a9.598 9.598 0 0 0 .153-1.627c0-.637-.13-1.318-.392-2-.326-.857-.76-1.318-1.282-1.428-.783-.154-1.544.286-2.262 1.363a7.146 7.146 0 0 0-1.152 2.615 7.724 7.724 0 0 0-.152 1.604c0 .638.13 1.319.391 2 .326.857.761 1.319 1.283 1.429.544.11 1.13-.132 1.761-.703Zm-11.979-3.252c-.305 1.45-.848 2.527-1.653 3.253-.63.571-1.217.813-1.76.703-.523-.11-.958-.572-1.284-1.429a5.631 5.631 0 0 1-.391-2c0-.55.043-1.099.152-1.604a7.146 7.146 0 0 1 1.152-2.615c.718-1.077 1.479-1.517 2.262-1.363.521.11.956.571 1.282 1.428.261.682.392 1.363.392 2 0 .572-.044 1.121-.152 1.627Z"/>
  <path fill="#C4C4C4" fill-rule="evenodd" d="M4.932 0H48.22c2.74 0 4.958 2.242 4.958 5.011v16.703c0 2.77-2.218 5.011-4.958 5.011H32.696L34.827 32l-9.37-5.275H4.952c-2.739 0-4.957-2.242-4.957-5.01V5.01C-.025 2.264 2.192 0 4.932 0ZM2.649 4.55c.304-.418.76-.638 1.37-.682 1.108-.088 1.739.44 1.891 1.582.674 4.594 1.413 8.484 2.196 11.67l4.762-9.164c.434-.835.978-1.275 1.63-1.319.957-.066 1.544.55 1.783 1.846.544 2.923 1.24 5.407 2.066 7.517.565-5.582 1.522-9.605 2.87-12.088.326-.615.804-.923 1.435-.967.5-.044.956.11 1.37.44.412.33.63.747.673 1.252a1.92 1.92 0 0 1-.217 1.055c-.848 1.583-1.544 4.242-2.11 7.934C21.826 17.21 21.63 20 21.76 22c.044.55-.043 1.033-.26 1.45-.262.484-.653.748-1.153.792-.565.044-1.152-.22-1.718-.814-2.022-2.088-3.63-5.208-4.805-9.362a413.769 413.769 0 0 0-3.13 6.33c-1.283 2.483-2.37 3.758-3.284 3.824-.587.044-1.087-.462-1.522-1.517-1.108-2.879-2.304-8.44-3.587-16.681-.065-.572.043-1.077.348-1.473ZM49.394 8c-.783-1.385-1.935-2.22-3.479-2.55a5.648 5.648 0 0 0-1.174-.131c-2.087 0-3.783 1.099-5.11 3.296-1.13 1.868-1.695 3.934-1.695 6.198 0 1.692.348 3.143 1.044 4.352.782 1.384 1.935 2.22 3.478 2.55a5.65 5.65 0 0 0 1.174.131c2.11 0 3.805-1.099 5.11-3.297 1.13-1.89 1.696-3.956 1.696-6.22 0-1.714-.348-3.142-1.044-4.33Zm-17.11-2.55c1.521.33 2.695 1.165 3.478 2.55.696 1.187 1.044 2.615 1.044 4.33 0 2.263-.566 4.33-1.696 6.22-1.305 2.197-3 3.296-5.11 3.296a5.65 5.65 0 0 1-1.174-.132c-1.543-.33-2.696-1.165-3.478-2.55-.696-1.208-1.044-2.659-1.044-4.35 0-2.265.565-4.33 1.696-6.199 1.326-2.197 3.022-3.296 5.11-3.296.369 0 .76.044 1.173.131Z" clip-rule="evenodd"/>
  <path fill="#C4C4C4" d="M56.504 13.34c0-2.24.718-4.087 2.174-5.538 1.457-1.45 3.283-2.175 5.501-2.153.848 0 1.652.087 2.37.285v3.56c-.783-.22-1.5-.329-2.174-.329-1.044 0-1.892.396-2.588 1.209-.674.791-1.021 1.824-1.021 3.077 0 1.34.347 2.395 1.043 3.187.696.769 1.609 1.164 2.761 1.164.566 0 1.218-.11 1.979-.33v3.561c-.826.242-1.587.352-2.261.352-2.327 0-4.196-.747-5.631-2.22-1.435-1.473-2.153-3.428-2.153-5.824Z"/>
  <path fill="#C4C4C4" fill-rule="evenodd" d="M69.071 7.649c1.13-1.341 2.696-2.022 4.696-2.022 2.131 0 3.762.68 4.914 2.022 1.13 1.362 1.696 3.296 1.696 5.802 0 2.505-.565 4.461-1.674 5.846-1.11 1.384-2.696 2.088-4.762 2.088-2.13 0-3.761-.704-4.87-2.088-1.109-1.385-1.674-3.385-1.674-6 0-2.418.543-4.308 1.674-5.648Zm4.696 10.33c.74 0 1.327-.308 1.718-.924.391-.615.609-1.846.63-3.648 0-2.923-.782-4.374-2.304-4.374-1.457 0-2.175 1.429-2.175 4.308 0 1.868.175 3.099.544 3.714.37.616.891.923 1.587.923Z" clip-rule="evenodd"/>
  <path fill="#C4C4C4" d="m90.335 9.407.783-3.363h5.174l2 14.967h-3.957L93.27 10.726 90.79 21.01h-2.696l-2.587-10.307-1.022 10.307h-3.783l1.892-14.967h5.044c.717 3.23 1.282 6 1.696 8.33l.434-2.33c.174-.9.37-1.78.566-2.637Zm18.111 0 .783-3.363h5.153l2 14.967h-3.957l-1.066-10.285-2.456 10.285h-2.696l-2.588-10.307-1.022 10.307h-3.783l1.892-14.967h5.044c.717 3.23 1.283 6 1.696 8.33l.435-2.33c.174-.9.369-1.78.565-2.637Zm16.633 5.693h-3.544v2.746h4.109v3.187h-8.11V6.066h8.088v3.187h-4.087V12h3.544v3.1Z"/>
  <path fill="#C4C4C4" fill-rule="evenodd" d="M137.537 10.616c0 .725-.218 1.428-.631 2.11-.413.68-1.021 1.186-1.782 1.538l3.196 6.747h-4.218l-3.24-6.813h-.065v6.813h-4.001V6.044h4.653c1.87 0 3.37.418 4.457 1.23 1.087.814 1.631 1.935 1.631 3.342Zm-6.762-1.693v3.56c1.761-.021 2.653-.549 2.653-1.582 0-.703-.196-1.187-.609-1.494-.413-.308-1.087-.462-2.044-.484Z" clip-rule="evenodd"/>
  <path fill="#C4C4C4" d="M137.711 13.34c0-2.24.717-4.087 2.174-5.538 1.457-1.45 3.305-2.175 5.501-2.153.848 0 1.652.087 2.37.285v3.56c-.783-.22-1.501-.329-2.175-.329-1.043 0-1.891.396-2.587 1.209-.674.791-1.022 1.824-1.022 3.077 0 1.34.348 2.395 1.044 3.187.696.769 1.609 1.164 2.761 1.164.565 0 1.218-.11 1.979-.33v3.561c-.827.242-1.587.352-2.261.352-2.327 0-4.197-.747-5.632-2.22-1.435-1.473-2.152-3.428-2.152-5.824Zm15.154 1.737v2.747h4.131v3.187h-8.11V6.044h8.088v3.187h-4.109v2.747h3.544v3.1h-3.544Z"/>
</svg>
