<svg xmlns="http://www.w3.org/2000/svg" width="122" height="38" fill="none" viewBox="0 0 122 38">
  <path fill="#C4C4C4" d="M70.62 2.102V4.87a.709.709 0 0 0 .724.68h6.427l-7.405 10.596c-.468.681-.468 1.447-.468 1.872v2.809c0 .425.468.85.894.638 4.17-2.255 9.234-2.043 13.021-.042.468.255.894-.213.894-.639v-2.936c-.043-.383-.17-.809-.639-1.064-2.127-1.191-4.638-1.531-7.021-1.489l6.383-9.106c.596-.852.936-1.362.936-1.745v-2.34a.709.709 0 0 0-.724-.682h-12.34a.647.647 0 0 0-.681.681ZM21.896 22.018h3.745a.747.747 0 0 0 .766-.639V10.964c-.002-2.232-.006-5.117 2.596-5.117 2.375 0 2.336 2.587 2.305 4.656-.004.229-.007.451-.007.663V21.38c0 .34.298.639.68.681h3.746a.709.709 0 0 0 .723-.68V10.862c-.004-1.083-.009-2.506.34-3.399a2.507 2.507 0 0 1 2.256-1.574c1.106 0 1.915.383 2.213 1.66.133.6.11 1.988.093 2.948-.004.263-.008.494-.008.668V21.38c0 .34.298.639.68.681h3.703a.709.709 0 0 0 .724-.68V9.208c0-.31.005-.626.01-.944.033-1.821.067-3.722-.947-5.099-1.064-1.49-2.766-2.127-4.34-2.127-2.213 0-4.299 1.148-5.192 3.574-1.021-2.426-2.51-3.574-4.851-3.574-2.298 0-4.043 1.148-4.937 3.574h-.085v-2.51a.693.693 0 0 0-.68-.639h-3.49a.709.709 0 0 0-.723.68V21.38a.769.769 0 0 0 .68.639Z"/>
  <path fill="#C4C4C4" fill-rule="evenodd" d="M103.6 11.89c0-6.085-3.021-10.851-8.596-10.851-5.447 0-8.468 4.68-8.425 10.68 0 5.958 2.978 10.724 8.425 10.724 5.277 0 8.596-4.68 8.596-10.553Zm-11.532-.766c0-2.34.17-6.128 2.936-6.128 1.192 0 2.043.51 2.468 1.872.469 1.532.554 3.49.554 5.107 0 2.468-.17 6.51-3.064 6.51-2.896 0-2.895-4.882-2.894-7.262v-.1Z" clip-rule="evenodd"/>
  <path fill="#C4C4C4" d="M107.047 22.018h3.745a.777.777 0 0 0 .766-.681V10.953c0-1.319.085-2.468.595-3.66.426-.936 1.277-1.531 2.171-1.531 2.387 0 2.363 2.591 2.343 4.663l-.003.529v10.468c.043.297.341.553.681.595h3.745a.7.7 0 0 0 .723-.595V9.294c0-1.873 0-4.469-.978-6-1.064-1.66-2.724-2.256-4.383-2.256-2.596 0-4.043 1.234-5.107 3.873h-.085V1.974a.728.728 0 0 0-.681-.553h-3.489a.734.734 0 0 0-.724.638v19.278c0 .34.298.638.681.68Z"/>
  <path fill="#C4C4C4" fill-rule="evenodd" d="M64.145 22.161a.77.77 0 0 0 .434-.186c.273-.227.62-.523.99-.84.674-.575 1.425-1.216 1.947-1.628.298-.213.255-.639 0-.979a27.227 27.227 0 0 0-.247-.346c-.598-.831-1.157-1.609-1.157-3.143v-5.83c0-.195 0-.389.002-.581.012-2.246.024-4.32-1.662-5.887-1.447-1.405-3.83-1.873-5.66-1.873-3.574 0-7.532 1.32-8.383 5.745-.085.468.256.681.554.766l3.617.383c.34 0 .553-.34.638-.68.298-1.533 1.575-2.256 3.021-2.256.766 0 1.617.298 2.085.978.489.678.48 1.588.47 2.407l-.002.317v.468c-.353.041-.724.08-1.106.121-1.97.209-4.248.45-5.958 1.198-2.341 1.022-4 3.064-4 6.128 0 3.872 2.468 5.83 5.617 5.83 2.638 0 4.127-.64 6.17-2.724.1.143.19.276.275.402.502.737.841 1.237 1.895 2.11.14.08.3.116.46.1Zm-3.354-9.107v-1.036c-2.723 0-5.574.596-5.574 3.787 0 1.618.85 2.724 2.297 2.724 1.064 0 2-.638 2.596-1.702.685-1.25.684-2.423.681-3.773Zm-45.838 9.107a.77.77 0 0 0 .433-.186h.001c.272-.227.619-.523.99-.84a77.734 77.734 0 0 1 1.946-1.628c.298-.213.256-.639 0-.979a25.36 25.36 0 0 0-.246-.346c-.598-.831-1.158-1.609-1.158-3.143v-5.83l.002-.581c.012-2.246.024-4.32-1.662-5.887C13.813 1.336 11.43.868 9.6.868c-3.574 0-7.531 1.32-8.382 5.745-.085.468.255.681.553.766l3.617.383c.34 0 .553-.34.638-.68.298-1.533 1.575-2.256 3.022-2.256.765 0 1.616.298 2.084.978.49.678.48 1.588.47 2.407l-.002.317v.468c-.353.041-.723.08-1.106.121-1.97.209-4.247.45-5.958 1.198-2.34 1.022-4 3.064-4 6.128 0 3.872 2.468 5.83 5.617 5.83 2.638 0 4.128-.64 6.17-2.724.1.143.19.276.276.402.5.737.84 1.237 1.894 2.11.14.08.3.116.46.1Zm-3.312-9.106v-1.037c-2.723 0-5.575.596-5.575 3.787 0 1.618.851 2.724 2.298 2.724 1.064 0 2-.638 2.596-1.702.685-1.25.683-2.423.681-3.772Z" clip-rule="evenodd"/>
  <path fill="#C4C4C4" d="M78.706 26.06c-.894-1.149-5.958-.553-8.213-.255-.681.085-.809-.51-.17-.936 4.042-2.851 10.638-2 11.404-1.064.766.936-.213 7.574-4 10.723-.596.468-1.15.213-.894-.425l.044-.111c.872-2.177 2.707-6.761 1.829-7.932Z"/>
  <path fill="#C4C4C4" d="M75.77 29.422c-7.022 5.192-17.235 7.958-26.043 7.958-12.341 0-23.405-4.553-31.83-12.128-.64-.595-.086-1.404.722-.936 9.064 5.277 20.256 8.426 31.83 8.426 7.788 0 16.384-1.617 24.3-4.98 1.19-.467 2.17.81 1.02 1.66Z"/>
</svg>
